# xmcd CD database file
#
# Track frame offsets:
#	150
#	17680
#	32491
#	48795
#	63871
#	76181
#	92289
#	106645
#	118989
#	132294
#	145478
#	158670
#
# Disc length: 2312 seconds
#
# Revision: 1
# Processed by: cddbd v1.5.2PL0 Copyright (c) Steve Scherf et al.
# Submitted via: CDex 1.51
#
DISCID=8809060c
DTITLE=Various Artist - Songs That Won The War - I'll Be Seeing You
DYEAR=1900
DGENRE=Jazz
TTITLE0=Vera Lynn - I'll Be Seeing You
TTITLE1=Rod McKuen - We Mustn't Say Goodbye
TTITLE2=Alice Faye - You'll Never Know and No Love, No Nothin'
TTITLE3=Vera Lynn - As Time Goes By
TTITLE4=Xavier Cugat - Time Was (Duerme)
TTITLE5=Jo Stafford - The Night We Called It A Day
TTITLE6=Jon Hendricks - We'll Be Together Again
TTITLE7=Carmen McRae - I'll See You Again
TTITLE8=Dinah Shore - You'd Be So Nice To Come Home To
TTITLE9=Rod McKuen - This Time The Dream's On Me
TTITLE10=Jo Stafford - I'll Remember April
TTITLE11=The Knights - Rockabye My Baby, There Ain't Gunna Be No War
EXTD=
EXTT0=
EXTT1=
EXTT2=
EXTT3=
EXTT4=
EXTT5=
EXTT6=
EXTT7=
EXTT8=
EXTT9=
EXTT10=
EXTT11=
PLAYORDER=
